<?xml version="1.0" encoding="UTF-8"?>
<svg version="1.1" xmlns="http://www.w3.org/2000/svg" width="512" height="512">
<path d="M0 0 C168.96 0 337.92 0 512 0 C512 50.49 512 100.98 512 153 C496.16 153.33 480.32 153.66 464 154 C376.14614948 159.83644461 290.29995178 181.23334941 207 209 C206.13755676 209.28748108 205.27511353 209.57496216 204.38653564 209.87115479 C163.86105655 223.42115952 123.96971754 238.91305956 84.88116455 256.17047119 C81.86992345 257.49832486 78.85432337 258.81623697 75.83984375 260.13671875 C51.32289279 270.92005726 27.11965459 282.36086436 3 294 C2.67 309.51 2.34 325.02 2 341 C10.24758497 339.29201538 10.24758497 339.29201538 16.75 335.5 C44.98103184 317.37028141 78.0679444 308.50295454 111 304 C111.74733398 303.8954248 112.49466797 303.79084961 113.26464844 303.68310547 C150.65065236 299.188745 187.7426988 305.52837767 223.6875 315.4375 C254.74123916 323.9852696 286.85247497 330.53845177 319 333 C319.72864258 333.05639648 320.45728516 333.11279297 321.20800781 333.17089844 C346.88544258 335.06504356 372.43241661 334.08655508 397.8125 329.625 C399.50052734 329.3297644 399.50052734 329.3297644 401.22265625 329.02856445 C404.49912915 328.41786523 407.74578504 327.71916758 411 327 C412.14315674 326.7944751 413.28631348 326.5889502 414.46411133 326.37719727 C419.32164797 325.28066986 422.82164955 324.36558008 426.14038086 320.51953125 C428.02547827 317.31572381 429.56634099 314.09008551 431.0625 310.6875 C431.64178624 309.46261082 432.22585796 308.23997453 432.81445312 307.01953125 C434.00527912 304.5403226 435.1748739 302.05282452 436.32861328 299.55615234 C438.72771265 294.45167068 441.35520846 289.48022235 444 284.5 C444.98075573 282.6258307 445.95990173 280.75081822 446.9375 278.875 C447.4325 277.92625 447.9275 276.9775 448.4375 276 C451.29986757 270.50425427 454.14944947 265.00188158 457 259.5 C463.79357669 246.38867579 470.62178509 233.29564568 477.45898438 220.20703125 C478.93130926 217.38818761 480.40327946 214.56915922 481.875 211.75 C482.36282959 210.81559082 482.85065918 209.88118164 483.35327148 208.91845703 C487.31304679 201.32840502 491.25119888 193.72724608 495.1875 186.125 C500.40299904 176.05356826 505.66417941 166.00819258 511 156 C511.33 156 511.66 156 512 156 C512 273.48 512 390.96 512 512 C343.04 512 174.08 512 0 512 C0 461.51 0 411.02 0 359 C20.58259241 349.64427618 41.85622877 343.43701264 64 339 C64.81774902 338.83274414 65.63549805 338.66548828 66.47802734 338.49316406 C120.01647264 327.84728976 174.08825862 337.24441581 225.66296387 352.43911743 C240.33615249 356.75546576 254.85331636 360.6941351 270 363 C270.99064453 363.15114258 271.98128906 363.30228516 273.00195312 363.45800781 C335.22490099 372.68280675 404.16343516 365.87282727 457 329 C461.9396838 325.29790668 466.68901609 321.37276464 471.38134766 317.36376953 C472.8542701 316.12278238 474.36862622 314.93139739 475.88671875 313.74609375 C478.08297234 312.17127178 478.08297234 312.17127178 479 310 C478.36835938 310.34667725 477.73671875 310.69335449 477.0859375 311.05053711 C447.86715254 326.96772283 417.97790714 337.30480055 385 342 C384.17838379 342.11859375 383.35676758 342.2371875 382.51025391 342.359375 C324.81549076 350.25729328 266.52866782 336.98594454 210.96484375 322.68359375 C208.20618836 321.97475805 205.4471477 321.26746287 202.6875 320.5625 C202.03378418 320.39549591 201.38006836 320.22849182 200.70654297 320.056427 C189.55600894 317.22592567 178.449849 315.12031001 167 314 C166.08806885 313.9086377 165.1761377 313.81727539 164.23657227 313.72314453 C106.33451694 308.37745984 50.15629375 323.04973824 2.43359375 356.07421875 C1 357 1 357 0 357 C0 239.19 0 121.38 0 0 Z M157 127 C155.3922168 127.2168042 155.3922168 127.2168042 153.75195312 127.43798828 C125.60823661 131.3866794 97.72819388 138.80126001 72 151 C72.33 151.66 72.66 152.32 73 153 C84.66345811 156.04032216 97.28206488 155.34358702 109 153 C111.475 159.435 111.475 159.435 114 166 C119.35515017 164.21885596 124.70627189 162.42627251 130.0546875 160.625 C132.00034811 159.9715866 133.94617298 159.31866546 135.89208984 158.66601562 C137.21081267 158.22308582 138.52917471 157.77908039 139.84716797 157.33398438 C165.67246411 148.61625932 165.67246411 148.61625932 173 150 C175.125 151.5625 175.125 151.5625 176 154 C176 157.5625 176 157.5625 175 161 C170.50125592 164.61572613 164.71218935 165.63786133 159.25 167.125 C138.6699498 172.82067628 138.6699498 172.82067628 119 181 C120.31558367 188.88191095 122.53586377 196.42823424 124.94116211 204.03466797 C125.56969569 206.02276043 126.19070015 208.01309008 126.81054688 210.00390625 C128.58986028 216.12458963 128.58986028 216.12458963 131 222 C134.90739418 221.36127416 138.20717379 220.17493409 141.828125 218.5859375 C143.58443237 217.82676025 143.58443237 217.82676025 145.3762207 217.05224609 C146.00404449 216.77983093 146.63186829 216.50741577 147.27871704 216.22674561 C189.55243234 197.96125456 233.49215079 183.69524832 278 172 C278.74038513 171.80470703 279.48077026 171.60941406 280.24359131 171.40820312 C308.2084661 164.0505131 336.48074128 158.7194856 365 154 C364.20387198 151.82341323 364.20387198 151.82341323 362.11282349 151.35343933 C361.28040131 151.16614761 360.44797913 150.9788559 359.59033203 150.78588867 C358.63748322 150.56726166 357.6846344 150.34863464 356.70291138 150.12338257 C355.12133743 149.77420273 355.12133743 149.77420273 353.5078125 149.41796875 C351.85143265 149.0419603 351.85143265 149.0419603 350.16159058 148.65835571 C346.4846009 147.82616791 342.80495017 147.00648955 339.125 146.1875 C336.56629605 145.61271363 334.00770375 145.03743006 331.44921875 144.46166992 C326.0667833 143.25186623 320.68277838 142.04924777 315.29785156 140.85058594 C309.11274922 139.47369544 302.93046061 138.08470704 296.74954796 136.68913937 C290.7771544 135.34105105 284.80258693 134.00286037 278.8270874 132.66860962 C276.30067157 132.10345689 273.77481912 131.53577904 271.24957275 130.96542358 C254.59073186 127.20894753 238.18572546 123.68169277 221.0234375 123.69921875 C220.17696152 123.6936647 219.33048553 123.68811066 218.45835876 123.68238831 C215.76372086 123.67078405 213.06963611 123.67680283 210.375 123.6875 C209.44134613 123.68899048 208.50769226 123.69048096 207.54574585 123.6920166 C190.5367427 123.74050056 173.86690277 124.71746275 157 127 Z M140 345 C142.64082161 346.40072894 145.12456797 347.41178677 148.01708984 348.1574707 C148.80188721 348.36155548 149.58668457 348.56564026 150.39526367 348.77590942 C151.66527222 349.09759598 151.66527222 349.09759598 152.9609375 349.42578125 C153.85159912 349.65393524 154.74226074 349.88208923 155.65991211 350.11715698 C158.56311789 350.85638289 161.46862675 351.58583223 164.375 352.3125 C165.85314178 352.68358383 165.85314178 352.68358383 167.36114502 353.06216431 C195.34103823 360.45892891 195.34103823 360.45892891 224 363 C220.66377435 359.66377435 216.08584217 359.03469998 211.625 357.75 C210.56369873 357.44352539 209.50239746 357.13705078 208.40893555 356.82128906 C191.96469553 352.18749231 175.21781567 348.60140939 158.3125 346.125 C157.49434814 346.00479492 156.67619629 345.88458984 155.83325195 345.76074219 C150.5167238 345.04559858 145.36376715 344.90374097 140 345 Z M2 382 C3.29040989 381.57044859 4.58076161 381.14072241 5.87109375 380.7109375 C6.69722168 380.43604492 7.52334961 380.16115234 8.37451172 379.87792969 C10.05729025 379.31523008 11.73874048 378.74853292 13.41845703 378.17675781 C64.82239287 360.7149183 113.73318414 363.1328808 165.25 378.625 C176.06280403 381.86470242 186.85203348 384.25036007 198 386 C199.05936768 386.17571533 199.05936768 386.17571533 200.14013672 386.35498047 C229.55078997 391.08457895 259.77898862 388.22013099 288.3515625 380.5 C289.15416504 380.2834375 289.95676758 380.066875 290.78369141 379.84375 C293.23515462 378.9104765 294.98234897 377.65976434 297 376 C278.84915979 373.02862765 260.8873856 370.69121128 242.5 369.9375 C210.23160255 368.57186113 179.19759677 361.8119267 148.0090332 353.71582031 C102.59650794 342.05298561 36.37345577 345.2132276 2 382 Z " fill="#000000" transform="translate(0,0)"/>
<path d="M0 0 C3.43615111 2.12017834 5.80717883 4.09622164 7 8 C7.46225901 12.77667642 7.49973779 15.01903323 5.3125 19.3125 C1.73770791 23.4669881 -0.43776011 24.82641779 -5.9375 25.4375 C-10.22902681 25.25126393 -12.7525341 23.86985359 -16 21 C-19.10770441 16.68931324 -19.42602899 13.21839251 -18.64453125 8.1171875 C-17.413266 4.07266772 -14.61502552 1.97101741 -11.109375 -0.13671875 C-7.39014247 -1.6588491 -3.82333512 -0.9490064 0 0 Z " fill="#000000" transform="translate(279,221)"/>
<path d="M0 0 C4.91834882 2.36809387 7.15427681 4.87299114 9 10 C9.56850145 13.89829563 9.20288785 15.60983106 7.375 19.125 C4.71097606 22.34987109 2.79643391 24.20922929 -1 26 C-5.6067052 26.33370126 -9.00672376 25.61287257 -12.9375 23.1875 C-16.69569857 19.20153182 -17.54984344 15.70302822 -17.4609375 10.32421875 C-16.65549538 6.26287923 -14.05462619 3.65894922 -11 1 C-7.52326295 -0.73836852 -3.80129202 -0.45436319 0 0 Z " fill="#000000" transform="translate(234,234)"/>
<path d="M0 0 C4.37253237 3.61092325 5.84924563 5.60346699 6.53125 11.44921875 C6.48214595 15.88495137 4.77176085 18.17680345 1.734375 21.28515625 C-1.64966487 24.20187633 -3.90217501 24.71747466 -8.34375 24.63671875 C-13.34150003 23.32152137 -16.18320613 21.04882402 -19.28125 16.82421875 C-20.66410693 12.12250518 -20.48201982 8.76850556 -18.15625 4.44921875 C-13.32180074 -1.45955257 -7.13594076 -4.8694022 0 0 Z " fill="#000000" transform="translate(194.90625,249.30078125)"/>
</svg>
